<svg width="76" height="76" viewBox="0 0 76 76" fill="none" xmlns="http://www.w3.org/2000/svg">
<g id="Frame">
<g id="Business planning 1">
<g id="Group">
<path id="Vector" opacity="0.2" d="M23.0553 71.9892C34.5226 71.9892 43.8187 62.6931 43.8187 51.2257C43.8187 39.7584 34.5226 30.4623 23.0553 30.4623C11.588 30.4623 2.29187 39.7584 2.29187 51.2257C2.29187 62.6931 11.588 71.9892 23.0553 71.9892Z" fill="#F4F8F7"/>
<path id="Vector_2" opacity="0.2" d="M57.2345 43.9107C64.1454 43.9107 69.7478 38.3083 69.7478 31.3974C69.7478 24.4865 64.1454 18.8842 57.2345 18.8842C50.3236 18.8842 44.7213 24.4865 44.7213 31.3974C44.7213 38.3083 50.3236 43.9107 57.2345 43.9107Z" fill="#F4F8F7"/>
<path id="Vector_3" d="M58.5051 47.0873V64.8701C58.5051 67.4945 56.3795 69.6201 53.7551 69.6201H13.9739C10.6934 69.6201 8.03638 66.9631 8.03638 63.6826" stroke="white" stroke-miterlimit="10" stroke-linecap="round"/>
<path id="Vector_4" d="M13.9383 24.4951H41.227" stroke="white" stroke-miterlimit="10" stroke-linecap="round"/>
<path id="Vector_5" d="M12.0442 18.8545C9.8295 18.8545 8.03638 20.6476 8.03638 22.8623V63.9795H8.04528C8.12544 61.8361 9.88294 60.1201 12.0442 60.1201C14.2054 60.1201 15.9659 61.8361 16.0431 63.9795H16.052V22.8623C16.052 20.6476 14.2589 18.8545 12.0442 18.8545Z" fill="#2662FA" stroke="white" stroke-miterlimit="10" stroke-linecap="round" stroke-linejoin="round"/>
<g id="Group_2">
<path id="Vector_6" d="M62.2161 22.7139H54.7942C53.8116 22.7139 53.013 21.9153 53.013 20.9326V17.0732C53.013 16.0906 53.8116 15.292 54.7942 15.292H62.2161C63.1988 15.292 63.9973 16.0906 63.9973 17.0732V20.9326C63.9973 21.9153 63.2017 22.7139 62.2161 22.7139Z" fill="#2662FA" stroke="white" stroke-miterlimit="10" stroke-linecap="round" stroke-linejoin="round"/>
<path id="Vector_7" d="M62.2161 33.1045H54.7942C53.8116 33.1045 53.013 32.3059 53.013 31.3232V27.4639C53.013 26.4812 53.8116 25.6826 54.7942 25.6826H62.2161C63.1988 25.6826 63.9973 26.4812 63.9973 27.4639V31.3232C63.9973 32.3059 63.2017 33.1045 62.2161 33.1045Z" stroke="white" stroke-miterlimit="10" stroke-linecap="round"/>
<path id="Vector_8" d="M62.2161 42.9014H54.7942C53.8116 42.9014 53.013 42.1028 53.013 41.1201V37.2607C53.013 36.2781 53.8116 35.4795 54.7942 35.4795H62.2161C63.1988 35.4795 63.9973 36.2781 63.9973 37.2607V41.1201C63.9973 42.1028 63.2017 42.9014 62.2161 42.9014Z" fill="#2662FA" stroke="white" stroke-miterlimit="10" stroke-linecap="round" stroke-linejoin="round"/>
<g id="Group_3">
<path id="Vector_9" d="M65.4817 18.5576H69.9348C70.9175 18.5576 71.7161 19.3562 71.7161 20.3389V27.7607C71.7161 28.7434 70.9175 29.542 69.9348 29.542H68.7473" stroke="white" stroke-miterlimit="10" stroke-linecap="round" stroke-linejoin="round"/>
<path id="Vector_10" d="M68.7474 27.1343L65.5827 29.3074L68.7474 31.4835V27.1343Z" stroke="white" stroke-miterlimit="10" stroke-linecap="round" stroke-linejoin="round"/>
</g>
<g id="Group_4">
<path id="Vector_11" d="M50.9348 29.9991H46.4817C45.4991 29.9991 44.7005 29.2006 44.7005 28.2179V20.796C44.7005 19.8134 45.4991 19.0148 46.4817 19.0148H47.6692" stroke="white" stroke-miterlimit="10" stroke-linecap="round" stroke-linejoin="round"/>
<path id="Vector_12" d="M47.6692 21.4225L50.8369 19.2464L47.6692 17.0732V21.4225Z" stroke="white" stroke-miterlimit="10" stroke-linecap="round" stroke-linejoin="round"/>
</g>
</g>
<g id="Group_5">
<path id="Vector_13" d="M29.7083 54.7764H24.6614C24.0053 54.7764 23.4739 54.245 23.4739 53.5889V48.542C23.4739 47.8859 24.0053 47.3545 24.6614 47.3545H29.7083C30.3643 47.3545 30.8958 47.8859 30.8958 48.542V53.5889C30.8958 54.245 30.3643 54.7764 29.7083 54.7764Z" fill="#FFB711" stroke="white" stroke-miterlimit="10" stroke-linecap="round" stroke-linejoin="round"/>
<g id="Group_6">
<path id="Vector_14" d="M34.1436 51.0654H45.2764" stroke="white" stroke-miterlimit="10" stroke-linecap="round"/>
</g>
<g id="Group_7">
<path id="Vector_15" d="M47.2061 51.0654H49.4326" stroke="white" stroke-miterlimit="10" stroke-linecap="round"/>
</g>
<path id="Vector_16" d="M25.4778 51.4365L26.3684 52.3271L28.8918 49.8037" stroke="white" stroke-miterlimit="10" stroke-linecap="round"/>
</g>
<g id="Group_8">
<path id="Vector_17" d="M29.7083 44.3857H24.6614C24.0053 44.3857 23.4739 43.8543 23.4739 43.1982V38.1514C23.4739 37.4953 24.0053 36.9639 24.6614 36.9639H29.7083C30.3643 36.9639 30.8958 37.4953 30.8958 38.1514V43.1982C30.8958 43.8543 30.3643 44.3857 29.7083 44.3857Z" fill="#FFB711" stroke="white" stroke-miterlimit="10" stroke-linecap="round" stroke-linejoin="round"/>
<g id="Group_9">
<path id="Vector_18" d="M34.1436 40.6748H42.3076" stroke="white" stroke-miterlimit="10" stroke-linecap="round"/>
</g>
<path id="Vector_19" d="M25.4778 41.0459L26.3684 41.9365L28.8918 39.4131" stroke="white" stroke-miterlimit="10" stroke-linecap="round"/>
</g>
<g id="Group_10">
<path id="Vector_20" d="M29.7083 65.167H24.6614C24.0053 65.167 23.4739 64.6356 23.4739 63.9795V58.9326C23.4739 58.2765 24.0053 57.7451 24.6614 57.7451H29.7083C30.3643 57.7451 30.8958 58.2765 30.8958 58.9326V63.9795C30.8958 64.6356 30.3643 65.167 29.7083 65.167Z" stroke="white" stroke-miterlimit="10" stroke-linecap="round"/>
<g id="Group_11">
<path id="Vector_21" d="M34.1436 61.4561H52.6982" stroke="white" stroke-miterlimit="10" stroke-linecap="round"/>
</g>
</g>
<path id="Vector_22" d="M38.7629 33.1045H25.1067C24.0409 33.1045 23.177 32.2406 23.177 31.1748C23.177 30.109 24.0409 29.2451 25.1067 29.2451H38.7629C39.8287 29.2451 40.6926 30.109 40.6926 31.1748C40.6926 32.2406 39.8287 33.1045 38.7629 33.1045Z" stroke="white" stroke-miterlimit="10" stroke-linecap="round"/>
<g id="Group_12">
<path id="Vector_23" d="M34.776 5.53369V12.6409H27.6688C27.6688 16.5656 30.8513 19.7481 34.776 19.7481C38.7006 19.7481 41.8831 16.5656 41.8831 12.6409C41.8802 8.71322 38.7006 5.53369 34.776 5.53369Z" stroke="white" stroke-miterlimit="10" stroke-linecap="round"/>
<path id="Vector_24" d="M33.253 4.01074C29.3283 4.01074 26.1458 7.19324 26.1458 11.1179H33.253V4.01074Z" fill="#FFB711" stroke="white" stroke-miterlimit="10" stroke-linecap="round" stroke-linejoin="round"/>
</g>
<g id="Group_13">
<path id="Vector_25" d="M14.2351 15.0219L13.4069 14.1936" stroke="white" stroke-miterlimit="10" stroke-linecap="round"/>
<path id="Vector_26" d="M14.2351 10.9724L13.4069 10.1442" stroke="white" stroke-miterlimit="10" stroke-linecap="round"/>
<path id="Vector_27" d="M14.2351 6.92313L13.4069 6.09485" stroke="white" stroke-miterlimit="10" stroke-linecap="round"/>
<path id="Vector_28" d="M18.2845 15.0219L17.4562 14.1936" stroke="white" stroke-miterlimit="10" stroke-linecap="round"/>
<path id="Vector_29" d="M18.2845 10.9724L17.4562 10.1442" stroke="white" stroke-miterlimit="10" stroke-linecap="round"/>
<path id="Vector_30" d="M18.2845 6.92313L17.4562 6.09485" stroke="white" stroke-miterlimit="10" stroke-linecap="round"/>
<path id="Vector_31" d="M22.5625 15.0219L21.7372 14.1936" stroke="white" stroke-miterlimit="10" stroke-linecap="round"/>
<path id="Vector_32" d="M22.5625 10.9724L21.7372 10.1442" stroke="white" stroke-miterlimit="10" stroke-linecap="round"/>
<path id="Vector_33" d="M22.5625 6.92313L21.7372 6.09485" stroke="white" stroke-miterlimit="10" stroke-linecap="round"/>
</g>
<g id="Group_14">
<path id="Vector_34" d="M70.6355 52.4548V54.1589" stroke="white" stroke-miterlimit="10" stroke-linecap="round"/>
<path id="Vector_35" d="M70.6355 48.0195V49.7266" stroke="white" stroke-miterlimit="10" stroke-linecap="round"/>
<path id="Vector_36" d="M69.2728 51.0892H67.5658" stroke="white" stroke-miterlimit="10" stroke-linecap="round"/>
<path id="Vector_37" d="M73.7051 51.0892H72.0011" stroke="white" stroke-miterlimit="10" stroke-linecap="round"/>
</g>
<g id="Group_15">
<path id="Vector_38" d="M55.9312 8.94482V10.2451" stroke="white" stroke-miterlimit="10" stroke-linecap="round"/>
<path id="Vector_39" d="M55.9312 5.56641V6.86672" stroke="white" stroke-miterlimit="10" stroke-linecap="round"/>
<path id="Vector_40" d="M54.8922 7.90576H53.5919" stroke="white" stroke-miterlimit="10" stroke-linecap="round"/>
<path id="Vector_41" d="M58.2677 7.90576H56.9703" stroke="white" stroke-miterlimit="10" stroke-linecap="round"/>
</g>
</g>
</g>
</g>
</svg>
