<svg width="64" height="64" viewBox="0 0 64 64" fill="none" xmlns="http://www.w3.org/2000/svg">
<g id="Waving hand">
<path id="Vector" d="M21.2015 49.2966C21.1632 49.2966 21.1213 49.2897 21.0795 49.2792C16.8808 47.9993 12.3334 43.4101 11.3465 39.459C11.2907 39.2359 11.4267 39.0127 11.6464 38.9569C11.8696 38.9011 12.0928 39.0371 12.1486 39.2568C13.0588 42.9009 17.4318 47.2984 21.32 48.4876C21.5398 48.5538 21.6618 48.784 21.5956 49.0036C21.5432 49.1815 21.3793 49.2966 21.2015 49.2966Z" fill="#DAED1A"/>
<path id="Vector_2" d="M23.2028 54.5034C23.1714 54.5034 23.1401 54.5 23.1086 54.493C19.6353 53.6839 15.5971 51.0894 12.0331 47.372C8.69927 43.8987 6.54066 40.2022 6.40117 37.7262C6.38722 37.4995 6.56158 37.3008 6.79174 37.2903C7.01841 37.2764 7.21719 37.4507 7.22765 37.6809C7.3532 39.9337 9.47343 43.5116 12.6294 46.8001C16.0853 50.4059 19.9736 52.9133 23.2969 53.6874C23.5201 53.7398 23.6597 53.963 23.6073 54.1861C23.562 54.3744 23.3911 54.5034 23.2028 54.5034Z" fill="#DAED1A"/>
<path id="Vector_3" d="M41.0046 18.2673C40.8198 18.2673 40.6523 18.1453 40.6035 17.9604C40.0211 15.7495 37.3743 12.5761 34.9646 11.9554C34.745 11.8995 34.6089 11.6729 34.6682 11.4497C34.7275 11.2265 34.9506 11.094 35.1738 11.1533C37.887 11.8543 40.7534 15.2752 41.4056 17.7512C41.4649 17.9709 41.3324 18.1975 41.1092 18.2568C41.0743 18.2639 41.0394 18.2673 41.0046 18.2673Z" fill="#DAED1A"/>
<path id="Vector_4" d="M46.2259 19.003C46.0411 19.003 45.8736 18.8775 45.8248 18.6926C44.273 12.5829 38.4702 7.81583 35.1573 7.223C34.9306 7.18115 34.7841 6.96843 34.8225 6.74176C34.8644 6.51508 35.0771 6.36861 35.3037 6.40697C38.9131 7.0556 44.967 11.9691 46.6269 18.4868C46.6827 18.71 46.5502 18.9332 46.327 18.9891C46.2921 18.9995 46.2608 19.003 46.2259 19.003Z" fill="#DAED1A"/>
<path id="Vector_5" d="M35.92 29.8591C36.5861 30.5948 37.1859 31.5608 36.9313 31.8154C36.6767 32.0699 35.8956 31.6096 35.2993 31.0098C34.703 30.4135 33.2767 36.7603 33.1372 37.0811C33.0326 37.3218 31.3727 39.2258 30.5043 41.0357C30.2149 41.639 30.2567 43.4594 30.1486 43.5675C29.7127 44.0034 29.1583 43.958 27.9621 42.9014C26.7659 41.8447 26.1452 48.1392 27.5715 49.1331C30.0091 50.8349 34.8843 57.5967 41.3253 57.5967C48.7775 57.5967 55.6789 49.8236 55.6789 44.1184C55.6789 38.4133 54.005 36.2511 54.1166 31.4701C54.2072 27.4215 57.1539 25.4895 57.1539 23.4669C57.1539 21.7651 54.6257 21.3501 53.7958 21.3501C52.3241 21.3501 48.5509 23.2367 48.5509 28.2026C48.5509 30.1345 47.9999 31.8816 46.0227 31.8816C44.0454 31.8816 41.8379 29.1686 40.5023 27.0518" fill="url(#paint0_linear_139_2663)"/>
<path id="Vector_6" d="M57.1508 23.4669C57.1508 22.5429 56.4011 21.9988 55.585 21.6919C56.5649 24.9385 51.5956 25.0781 51.5956 36.1397C51.5956 47.2013 45.1546 50.42 42.4868 50.9744C39.8191 51.5255 35.1183 51.6859 31.5404 47.2954C30.4419 45.9458 28.9528 44.4812 27.2964 43.0968C26.5954 44.265 26.4455 48.3486 27.5719 49.1332C30.0095 50.835 34.8846 57.5968 41.3256 57.5968C48.7779 57.5968 55.6792 49.8237 55.6792 44.1185C55.6792 38.4133 54.0053 36.2513 54.1169 31.4702C54.2076 27.4215 57.1508 25.4896 57.1508 23.4669Z" fill="url(#paint1_linear_139_2663)"/>
<path id="Vector_7" d="M27.963 42.9015C26.767 41.8448 23.9387 38.8318 22.0975 37.3567C20.2563 35.8851 18.6486 35.9025 17.5431 37.5275C16.4377 39.1527 19.6599 42.0052 20.3957 42.741C21.5221 43.8674 26.1462 48.1393 27.5725 49.1367" fill="url(#paint2_linear_139_2663)"/>
<path id="Vector_8" d="M33.1386 37.081C32.9991 37.4019 32.061 37.625 30.1953 35.5955C28.7691 34.0436 24.9505 29.5834 22.6977 27.5608C20.4449 25.5382 18.6943 24.7082 17.2227 25.7684C15.7511 26.8284 16.588 29.0324 18.234 30.8737C20.2706 33.1508 22.614 35.4734 24.8563 37.7052C26.6104 39.4488 30.5824 43.1349 30.1465 43.5708" fill="url(#paint3_linear_139_2663)"/>
<path id="Vector_9" d="M24.859 37.7018C26.5155 39.3478 30.1423 42.7199 30.1806 43.4627C30.7037 42.6467 29.7482 40.2196 28.7368 39.3687C22.8922 34.4482 17.2464 26.5147 16.528 26.7518C16.2211 27.9061 16.9988 29.4893 18.2332 30.8737C20.2698 33.1475 22.6132 35.4735 24.859 37.7018Z" fill="url(#paint4_linear_139_2663)"/>
<path id="Vector_10" d="M40.5004 27.0552C39.1648 24.9384 33.6897 18.1313 32.3576 16.1994C31.022 14.2674 29.2295 14.2674 27.988 15.1427C26.7466 16.018 26.3769 17.7651 29.1737 21.4791C30.9383 23.8225 32.4029 25.9776 35.9251 29.8624L40.0191 29.5765L40.5004 27.0552Z" fill="url(#paint5_linear_139_2663)"/>
<path id="Vector_11" d="M35.2992 31.0097C34.7028 30.4134 29.4127 24.1433 28.2165 22.7972C25.9743 20.2794 23.1321 14.8846 19.7425 17.2873C17.9605 18.5497 18.9265 20.3805 19.4321 21.1163C19.9378 21.8522 26.5148 29.4439 27.1599 30.0856C27.8051 30.7307 33.2766 36.7567 33.1406 37.0775" fill="url(#paint6_linear_139_2663)"/>
<path id="Vector_12" d="M35.9216 29.8588C36.5632 30.5667 37.1386 31.4838 36.9573 31.7803C39.0915 30.0645 34.579 25.022 32.0228 21.995C30.0456 19.6516 29.505 16.67 28.0892 15.0728C28.0543 15.0937 28.0229 15.1181 27.988 15.139C26.7466 16.0144 26.3769 17.7615 29.1737 21.4754C30.9348 23.8188 32.4029 25.9775 35.9216 29.8588Z" fill="url(#paint7_linear_139_2663)"/>
<path id="Vector_13" d="M27.1574 30.0892C27.8025 30.7343 33.274 36.7603 33.138 37.0811C34.8293 34.804 28.2733 28.1119 25.0999 24.7292C22.3484 21.7964 21.8776 19.2298 19.1924 17.7896C18.1951 18.9962 18.9867 20.4748 19.4295 21.1199C19.9352 21.8557 26.5157 29.4475 27.1574 30.0892Z" fill="url(#paint8_linear_139_2663)"/>
<path id="Vector_14" d="M33.0164 37.2173C32.8246 37.3359 32.4306 37.3463 31.8203 36.9941C32.2737 37.3603 32.6921 37.4997 33.0164 37.2173Z" fill="url(#paint9_linear_139_2663)"/>
<path id="Vector_15" d="M54.1822 22.0406C55.5876 21.7895 55.8352 21.9499 55.5841 21.6919C54.9006 21.4373 54.1682 21.3501 53.7917 21.3501C52.32 21.3501 48.5468 23.2367 48.5468 28.2026C48.5468 30.1345 47.9958 31.8816 46.015 31.8816C45.2339 31.8816 44.4214 31.4597 43.6367 30.818C47.1101 34.6645 49.8336 31.0412 50.2486 28.5583C50.6636 26.0754 50.0602 22.7799 54.1822 22.0406Z" fill="url(#paint10_radial_139_2663)"/>
<path id="Vector_16" d="M27.562 15.5156C26.7042 16.4886 26.7321 18.2323 29.1697 21.4754C30.9343 23.8188 32.3989 25.9739 35.9211 29.8587C36.5871 30.5946 37.1869 31.5606 36.9324 31.8151C37.5217 27.7908 31.7921 23.8327 29.93 20.7988C28.4548 18.3927 28.1619 16.9733 27.562 15.5156Z" fill="url(#paint11_linear_139_2663)"/>
<path id="Vector_17" d="M27.1573 30.0891C27.8025 30.7343 33.274 36.7603 33.138 37.0811C34.3445 36.2197 33.5216 34.8771 31.6559 33.0115C27.8304 29.1859 22.5053 24.0457 20.3641 19.8122C20.1619 19.4111 19.7853 19.1147 19.3424 19.0589C18.1881 18.909 19.046 20.5584 19.433 21.1199C19.9352 21.8557 26.5157 29.4475 27.1573 30.0891Z" fill="url(#paint12_linear_139_2663)"/>
<path id="Vector_18" d="M18.2334 30.8734C20.27 33.1506 22.6134 35.473 24.8557 37.705C26.6098 39.4486 30.5818 43.1346 30.1459 43.5705C32.6079 41.499 21.1732 34.0119 16.5247 26.7549C16.2213 27.9022 16.9989 29.489 18.2334 30.8734Z" fill="url(#paint13_linear_139_2663)"/>
<path id="Vector_19" d="M29.6429 43.9824C29.8765 43.8918 29.9986 43.7837 30.0369 43.6651C29.615 43.9895 29.0605 43.8743 27.962 42.9014C26.7659 41.8447 23.9377 38.8318 22.0964 37.3567C21.2874 36.7116 20.5237 36.3524 19.8262 36.2896C20.8235 36.9138 20.3598 37.137 22.5777 38.8388C23.7703 39.7524 28.1224 44.5787 29.6429 43.9824Z" fill="url(#paint14_linear_139_2663)"/>
<path id="Vector_20" d="M26.7461 32.9416C28.3607 34.9084 31.5132 38.155 32.929 37.2588C32.5385 37.3913 31.6492 37.1751 30.1985 35.5954C28.7722 34.0436 24.9537 29.5833 22.7009 27.5607C20.877 25.9217 19.381 25.0673 18.0977 25.3637C21.8325 26.5912 25.2152 31.0828 26.7461 32.9416Z" fill="url(#paint15_linear_139_2663)"/>
<path id="Vector_21" d="M28.4929 24.4782C31.0699 27.282 34.8955 32.8442 36.8344 31.8712C36.517 31.9688 35.8335 31.5469 35.3 31.0099C34.7037 30.4136 29.4135 24.1435 28.2173 22.7974C26.6621 21.0537 24.8242 17.9292 22.7109 16.9736C24.8417 18.6545 26.404 22.208 28.4929 24.4782Z" fill="url(#paint16_linear_139_2663)"/>
<path id="Vector_22" d="M43.6385 30.8214C43.642 30.8214 43.642 30.8214 43.6385 30.8214C42.4354 29.8379 41.3055 28.335 40.4965 27.0551C39.1643 24.9383 33.6894 18.1312 32.3572 16.1993C31.9492 15.6099 31.5028 15.2019 31.0391 14.9438C31.6598 15.8366 32.0119 17.1094 33.4173 18.6857C35.6701 21.2139 38.6168 25.7683 39.6282 27.3341C40.6359 28.8929 42.268 32.1918 43.6385 30.8214Z" fill="url(#paint17_linear_139_2663)"/>
<path id="Vector_23" d="M51.0165 53.2725C50.1795 51.2359 48.9555 49.9945 47.1875 51.1592C42.3645 54.3362 36.8164 53.2621 29.8593 47.6406C23.6554 42.6224 20.4471 39.0375 17.4272 37.7402C16.7018 39.3897 19.6869 42.0366 20.3913 42.741C21.5177 43.8674 26.1418 48.1393 27.5681 49.1366C30.0057 50.8384 34.8809 57.6002 41.3219 57.6002C44.9242 57.5967 48.3905 55.7868 51.0165 53.2725Z" fill="url(#paint18_linear_139_2663)"/>
<path id="Vector_24" d="M54.1132 31.47C54.2039 27.4213 57.1507 25.4893 57.1507 23.4667C57.1507 22.8704 56.8403 22.4345 56.4008 22.1172C56.9379 23.6934 55.6581 25.0918 53.7471 27.4701C51.6756 30.0472 51.2188 34.0471 52.6416 38.0505C54.0679 42.0538 52.2719 47.5742 49.374 49.3214C46.4761 51.0685 42.6262 58.7509 31.6029 50.0711C31.5995 50.0676 31.5995 50.0676 31.5959 50.0641C30.9229 49.4399 30.2568 48.8854 29.5838 48.4669C24.9283 45.5829 22.2745 42.9885 20.2693 40.8089C19.8753 40.38 18.8151 38.7375 17.5527 39.278C18.1839 40.7077 19.8823 42.2318 20.3914 42.7409C21.5178 43.8673 26.1419 48.1391 27.5682 49.1365C27.753 49.2655 27.9552 49.4259 28.1679 49.6108C28.2238 49.6596 28.2795 49.7084 28.3354 49.7572C28.3493 49.7712 28.3667 49.7851 28.3807 49.7956C28.4155 49.827 28.4539 49.8618 28.4888 49.8933C28.4958 49.9002 28.5063 49.9072 28.5132 49.9177C29.9604 51.2323 31.9516 53.4084 34.3927 55.1067C34.3927 55.1067 34.3963 55.1067 34.3963 55.1102C34.609 55.2602 34.8287 55.4066 35.0483 55.5461C35.0519 55.5496 35.0553 55.5496 35.0588 55.553C35.2785 55.6926 35.5017 55.8285 35.7249 55.9576C35.7283 55.9576 35.7283 55.961 35.7319 55.961C37.4197 56.9306 39.2923 57.6001 41.315 57.6001C48.7672 57.6001 55.6685 49.827 55.6685 44.1218C55.6685 38.4166 54.0051 36.2545 54.1132 31.47Z" fill="url(#paint19_radial_139_2663)"/>
</g>
<defs>
<linearGradient id="paint0_linear_139_2663" x1="52.0559" y1="59.0725" x2="45.9151" y2="44.6853" gradientUnits="userSpaceOnUse">
<stop offset="0.00132565" stop-color="#FFCB4B"/>
<stop offset="1" stop-color="#FFD748"/>
</linearGradient>
<linearGradient id="paint1_linear_139_2663" x1="53.2784" y1="49.0662" x2="40.3984" y2="33.7022" gradientUnits="userSpaceOnUse">
<stop offset="0.00132565" stop-color="#FFCB4B"/>
<stop offset="1" stop-color="#FFD748"/>
</linearGradient>
<linearGradient id="paint2_linear_139_2663" x1="18.852" y1="38.8373" x2="26.442" y2="44.4263" gradientUnits="userSpaceOnUse">
<stop offset="0.00132565" stop-color="#FFCB4B"/>
<stop offset="1" stop-color="#FFD748"/>
</linearGradient>
<linearGradient id="paint3_linear_139_2663" x1="16.0887" y1="24.0442" x2="29.4058" y2="37.9822" gradientUnits="userSpaceOnUse">
<stop offset="0.00132565" stop-color="#FFCB4B"/>
<stop offset="1" stop-color="#FFD748"/>
</linearGradient>
<linearGradient id="paint4_linear_139_2663" x1="26.3111" y1="32.321" x2="21.9089" y2="36.4679" gradientUnits="userSpaceOnUse">
<stop stop-color="#FFBC47" stop-opacity="0"/>
<stop offset="1" stop-color="#FFA754"/>
</linearGradient>
<linearGradient id="paint5_linear_139_2663" x1="30.4728" y1="17.4683" x2="38.2008" y2="29.6123" gradientUnits="userSpaceOnUse">
<stop offset="0.00132565" stop-color="#FFCB4B"/>
<stop offset="1" stop-color="#FFD748"/>
</linearGradient>
<linearGradient id="paint6_linear_139_2663" x1="22.4938" y1="19.4857" x2="32.9818" y2="33.6537" gradientUnits="userSpaceOnUse">
<stop offset="0.00132565" stop-color="#FFCB4B"/>
<stop offset="1" stop-color="#FFD748"/>
</linearGradient>
<linearGradient id="paint7_linear_139_2663" x1="34.9688" y1="21.1952" x2="28.3448" y2="27.1752" gradientUnits="userSpaceOnUse">
<stop stop-color="#FFBC47" stop-opacity="0"/>
<stop offset="1" stop-color="#FFA754"/>
</linearGradient>
<linearGradient id="paint8_linear_139_2663" x1="28.875" y1="25.4558" x2="19.767" y2="32.1143" gradientUnits="userSpaceOnUse">
<stop stop-color="#FFBC47" stop-opacity="0"/>
<stop offset="1" stop-color="#FFA754"/>
</linearGradient>
<linearGradient id="paint9_linear_139_2663" x1="35.6604" y1="34.7369" x2="26.5524" y2="41.3953" gradientUnits="userSpaceOnUse">
<stop stop-color="#FFBC47" stop-opacity="0"/>
<stop offset="1" stop-color="#FFA754"/>
</linearGradient>
<radialGradient id="paint10_radial_139_2663" cx="0" cy="0" r="1" gradientUnits="userSpaceOnUse" gradientTransform="translate(47.6097 23.9267) scale(10.9345)">
<stop stop-color="#FFBC47" stop-opacity="0"/>
<stop offset="1" stop-color="#FFA754"/>
</radialGradient>
<linearGradient id="paint11_linear_139_2663" x1="36.1805" y1="20.0207" x2="30.5225" y2="25.2647" gradientUnits="userSpaceOnUse">
<stop offset="0.3118" stop-color="#FFBC47" stop-opacity="0"/>
<stop offset="1" stop-color="#FF8900"/>
</linearGradient>
<linearGradient id="paint12_linear_139_2663" x1="31.8477" y1="22.8632" x2="24.3957" y2="29.5792" gradientUnits="userSpaceOnUse">
<stop offset="0.3118" stop-color="#FFBC47" stop-opacity="0"/>
<stop offset="1" stop-color="#FF8900"/>
</linearGradient>
<linearGradient id="paint13_linear_139_2663" x1="29.3292" y1="30.127" x2="20.1292" y2="37.855" gradientUnits="userSpaceOnUse">
<stop offset="0.3118" stop-color="#FFBC47" stop-opacity="0"/>
<stop offset="1" stop-color="#FF8900"/>
</linearGradient>
<linearGradient id="paint14_linear_139_2663" x1="19.2897" y1="35.7414" x2="29.9847" y2="44.4354" gradientUnits="userSpaceOnUse">
<stop stop-color="#FFBC47" stop-opacity="0"/>
<stop offset="1" stop-color="#FFBC47"/>
</linearGradient>
<linearGradient id="paint15_linear_139_2663" x1="21.3379" y1="24.9648" x2="29.6869" y2="37.6608" gradientUnits="userSpaceOnUse">
<stop stop-color="#FFBC47" stop-opacity="0"/>
<stop offset="1" stop-color="#FFBC47"/>
</linearGradient>
<linearGradient id="paint16_linear_139_2663" x1="27.8773" y1="25.872" x2="30.2233" y2="24.078" gradientUnits="userSpaceOnUse">
<stop stop-color="#FFBC47" stop-opacity="0"/>
<stop offset="1" stop-color="#FFA754"/>
</linearGradient>
<linearGradient id="paint17_linear_139_2663" x1="39.4547" y1="32.9595" x2="36.3266" y2="18.0554" gradientUnits="userSpaceOnUse">
<stop stop-color="#FFBC47" stop-opacity="0"/>
<stop offset="1" stop-color="#FFBC47"/>
</linearGradient>
<linearGradient id="paint18_linear_139_2663" x1="32.3129" y1="47.2637" x2="27.6209" y2="51.5762" gradientUnits="userSpaceOnUse">
<stop offset="0.3118" stop-color="#FFBC47" stop-opacity="0"/>
<stop offset="1" stop-color="#FF8900"/>
</linearGradient>
<radialGradient id="paint19_radial_139_2663" cx="0" cy="0" r="1" gradientUnits="userSpaceOnUse" gradientTransform="translate(35.4207 33.0111) rotate(48.1401) scale(31.6942 28.7684)">
<stop offset="0.6134" stop-color="#FFBC47" stop-opacity="0"/>
<stop offset="1" stop-color="#FF8900"/>
</radialGradient>
</defs>
</svg>
